<svg viewBox="0 0 15.75 14.625" xmlns="http://www.w3.org/2000/svg" xmlns:xlink="http://www.w3.org/1999/xlink" width="15.750000" height="14.625000" fill="none" customFrame="#000000">
	<path id="Vector" d="M11.25 1L11.25 13.625C11.25 14.1773 11.6977 14.625 12.25 14.625L14.75 14.625C15.3023 14.625 15.75 14.1773 15.75 13.625L15.75 1C15.75 0.447715 15.3023 0 14.75 0L12.25 0C11.6977 0 11.25 0.447715 11.25 1ZM0 4.375L0 13.625C0 14.1773 0.447715 14.625 1 14.625L3.5 14.625C4.05228 14.625 4.5 14.1773 4.5 13.625L4.5 4.375C4.5 3.82272 4.05228 3.375 3.5 3.375L1 3.375C0.447715 3.375 0 3.82272 0 4.375ZM5.625 7.75L5.625 13.625C5.625 14.1773 6.07272 14.625 6.625 14.625L9.125 14.625C9.67729 14.625 10.125 14.1773 10.125 13.625L10.125 7.75C10.125 7.19772 9.67728 6.75 9.125 6.75L6.625 6.75C6.07272 6.75 5.625 7.19772 5.625 7.75Z" fill="rgb(65.6094,65.6094,80.75)" fill-rule="nonzero" />
</svg>
