<svg viewBox="0 0 15.75 14.625" xmlns="http://www.w3.org/2000/svg" xmlns:xlink="http://www.w3.org/1999/xlink" width="15.750000" height="14.625000" fill="none" customFrame="#000000">
	<path id="Vector" d="M11.25 1L11.25 13.625C11.25 14.1773 11.6977 14.625 12.25 14.625L14.75 14.625C15.3023 14.625 15.75 14.1773 15.75 13.625L15.75 1C15.75 0.447715 15.3023 0 14.75 0L12.25 0C11.6977 0 11.25 0.447715 11.25 1ZM13.375 1.125L13.625 1.125C14.1773 1.125 14.625 1.57272 14.625 2.125L14.625 12.5C14.625 13.0523 14.1773 13.5 13.625 13.5L13.375 13.5C12.8227 13.5 12.375 13.0523 12.375 12.5L12.375 2.125C12.375 1.57272 12.8227 1.125 13.375 1.125ZM0 4.375L0 13.625C0 14.1773 0.447715 14.625 1 14.625L3.5 14.625C4.05228 14.625 4.5 14.1773 4.5 13.625L4.5 4.375C4.5 3.82272 4.05228 3.375 3.5 3.375L1 3.375C0.447715 3.375 0 3.82272 0 4.375ZM2.125 4.5L2.375 4.5C2.92728 4.5 3.375 4.94772 3.375 5.5L3.375 12.5C3.375 13.0523 2.92728 13.5 2.375 13.5L2.125 13.5C1.57272 13.5 1.125 13.0523 1.125 12.5L1.125 5.5C1.125 4.94772 1.57272 4.5 2.125 4.5ZM5.625 7.75L5.625 13.625C5.625 14.1773 6.07272 14.625 6.625 14.625L9.125 14.625C9.67729 14.625 10.125 14.1773 10.125 13.625L10.125 7.75C10.125 7.19772 9.67728 6.75 9.125 6.75L6.625 6.75C6.07272 6.75 5.625 7.19772 5.625 7.75ZM7.75 7.875L8 7.875C8.55228 7.875 9 8.32272 9 8.875L9 12.5C9 13.0523 8.55229 13.5 8 13.5L7.75 13.5C7.19772 13.5 6.75 13.0523 6.75 12.5L6.75 8.875C6.75 8.32272 7.19772 7.875 7.75 7.875Z" fill="rgb(186,192,190)" fill-rule="nonzero" />
</svg>
