<svg viewBox="0 0 18.3418 15.0001" xmlns="http://www.w3.org/2000/svg" xmlns:xlink="http://www.w3.org/1999/xlink" width="18.341797" height="15.000061" fill="none" customFrame="#000000">
	<path id="Vector" d="M0.633901 0.00012354C0.551082 -0.00104774 0.468855 0.014253 0.392 0.0451366C0.315144 0.0760202 0.245194 0.121871 0.186213 0.180023C0.127232 0.238176 0.0803967 0.307472 0.0484294 0.383882C0.016462 0.460293 -9.25186e-17 0.542295 9.25186e-17 0.625124C-9.25186e-17 0.707952 0.016462 0.789954 0.0484294 0.866365C0.0803967 0.942775 0.127232 1.01207 0.186213 1.07022C0.245194 1.12838 0.315144 1.17423 0.392 1.20511C0.468855 1.23599 0.551082 1.25129 0.633901 1.25012L1.78218 1.25012C2.08548 1.25012 2.33831 1.45968 2.39578 1.75794L2.52029 2.40898L3.86388 9.46546C4.10685 10.7386 5.22854 11.6668 6.52501 11.6668L14.3261 11.6668C15.6226 11.6668 16.7448 10.7389 16.9873 9.46546L18.3308 2.40898C18.3481 2.31863 18.3452 2.22559 18.3223 2.1365C18.2994 2.04741 18.2572 1.96446 18.1986 1.89357C18.14 1.82268 18.0665 1.7656 17.9832 1.7264C17.9 1.6872 17.8092 1.66685 17.7172 1.66679L3.65067 1.66679L3.62381 1.52437C3.45584 0.644095 2.67847 0.00012354 1.78218 0.00012354L0.633901 0.00012354ZM3.88911 2.91679L16.962 2.91679L15.7592 9.2319C15.6276 9.9234 15.0305 10.4168 14.3261 10.4168L6.52501 10.4168C5.8209 10.4168 5.22423 9.92337 5.09191 9.2319L5.09191 9.23108L3.88911 2.91679ZM7.5089 12.5001C7.17738 12.5001 6.85944 12.6318 6.62502 12.8662C6.3906 13.1007 6.2589 13.4186 6.2589 13.7501C6.2589 14.0816 6.3906 14.3996 6.62502 14.634C6.85944 14.8684 7.17738 15.0001 7.5089 15.0001C7.84042 15.0001 8.15836 14.8684 8.39278 14.634C8.6272 14.3996 8.7589 14.0816 8.7589 13.7501C8.7589 13.4186 8.6272 13.1007 8.39278 12.8662C8.15836 12.6318 7.84042 12.5001 7.5089 12.5001ZM13.3422 12.5001C13.0107 12.5001 12.6928 12.6318 12.4584 12.8662C12.2239 13.1007 12.0922 13.4186 12.0922 13.7501C12.0922 14.0816 12.2239 14.3996 12.4584 14.634C12.6928 14.8684 13.0107 15.0001 13.3422 15.0001C13.6738 15.0001 13.9917 14.8684 14.2261 14.634C14.4605 14.3996 14.5922 14.0816 14.5922 13.7501C14.5922 13.4186 14.4605 13.1007 14.2261 12.8662C13.9917 12.6318 13.6738 12.5001 13.3422 12.5001Z" fill="rgb(255,255,255)" fill-rule="nonzero" />
</svg>
