<svg viewBox="0 0 16 14" xmlns="http://www.w3.org/2000/svg" xmlns:xlink="http://www.w3.org/1999/xlink" width="16.000000" height="14.000000" fill="none" customFrame="#000000">
	<path id="Vector" d="M7.31981 1.26483C6.46705 0.457588 5.48865 0 4.4 0C1.97698 0 0 1.97699 0 4.40004C0 6.03851 1.23506 7.58122 2.74062 9.16336C4.24619 10.7455 6.09935 12.3479 7.57578 13.8243C7.68831 13.9368 7.8409 14 8 14C8.1591 14 8.31169 13.9368 8.42422 13.8243C9.90065 12.3479 11.7538 10.7455 13.2594 9.16336C14.7649 7.58122 16 6.03851 16 4.40004C16 1.97699 14.023 0 11.6 0C10.5114 0 9.53295 0.457589 8.68019 1.26483C8.44369 1.48871 8.21685 1.73949 8 2.01486C7.78315 1.73949 7.55631 1.48871 7.31981 1.26483ZM1.65164 6.26951C1.21721 5.58044 1 4.95728 1 4.40004C1 4.15108 1.02617 3.9079 1.07852 3.67049C1.12276 3.46983 1.1857 3.27329 1.26733 3.08088C1.3444 2.89924 1.43565 2.72677 1.54109 2.56345C1.67176 2.36106 1.82422 2.17273 1.99848 1.99848C2.17274 1.82422 2.36107 1.67175 2.56348 1.54107C2.72678 1.43564 2.89924 1.34439 3.08086 1.26734C3.27329 1.18569 3.46985 1.12275 3.67052 1.07851C3.90791 1.02617 4.15107 1 4.4 1C4.5379 1 4.67433 1.00998 4.80929 1.02994C5.67118 1.15741 6.47287 1.69195 7.21436 2.63354L8 3.63121L8.78564 2.63354C9.52713 1.69194 10.3288 1.15741 11.1907 1.02994C11.3257 1.00998 11.4621 1 11.6 1C11.8489 1 12.0921 1.02617 12.3295 1.07852C12.5302 1.12276 12.7267 1.1857 12.9191 1.26734C13.1007 1.34439 13.2732 1.43562 13.4365 1.54104C13.6389 1.67172 13.8272 1.8242 14.0015 1.99848C14.1758 2.17273 14.3282 2.36105 14.4589 2.56343C14.5643 2.72675 14.6556 2.89924 14.7327 3.08088C14.8143 3.27331 14.8772 3.46986 14.9215 3.67054C14.9738 3.90793 15 4.1511 15 4.40004C15 4.95729 14.7828 5.58044 14.3484 6.26951C14.1409 6.59862 13.8763 6.95598 13.5548 7.34157C13.2816 7.66912 12.9417 8.04659 12.535 8.474C12.1615 8.8664 11.7171 9.31039 11.2015 9.80597C10.8901 10.1053 10.4156 10.553 9.77784 11.1492C9.01782 11.8596 8.42521 12.4225 8 12.8379C7.57473 12.4224 6.98211 11.8595 6.22216 11.1492C5.58442 10.553 5.10985 10.1053 4.79846 9.80597C4.28293 9.31039 3.83846 8.8664 3.46504 8.474C3.05833 8.04659 2.71839 7.66912 2.44523 7.34157C2.12366 6.95598 1.85914 6.59862 1.65164 6.26951Z" fill="rgb(186,192,190.3)" fill-rule="evenodd" />
</svg>
