<svg viewBox="0 0 48 40" xmlns="http://www.w3.org/2000/svg" xmlns:xlink="http://www.w3.org/1999/xlink" width="48.000000" height="40.000000" fill="none" customFrame="url(#clipPath_0)">
	<defs>
		<clipPath id="clipPath_0">
			<rect width="48.000000" height="40.000000" x="0.000000" y="0.000000" rx="8.000000" fill="rgb(255,255,255)" />
		</clipPath>
		<clipPath id="clipPath_1">
			<rect width="20.000000" height="20.000000" x="14.000000" y="10.000000" fill="rgb(255,255,255)" />
		</clipPath>
	</defs>
	<rect id="Frame 5" width="48.000000" height="40.000000" x="0.000000" y="0.000000" rx="8.000000" fill="rgb(98.0776,98.0776,112.625)" />
	<g id="icons8-shopping_cart 1" customFrame="url(#clipPath_1)">
		<rect id="icons8-shopping_cart 1" width="20.000000" height="20.000000" x="14.000000" y="10.000000" fill="rgb(255,255,255)" fill-opacity="0" />
		<path id="Vector" d="M15.4581 12.5001C15.3753 12.4989 15.2931 12.5142 15.2162 12.5451C15.1394 12.576 15.0694 12.6218 15.0104 12.68C14.9515 12.7381 14.9046 12.8074 14.8726 12.8838C14.8407 12.9602 14.8242 13.0422 14.8242 13.1251C14.8242 13.2079 14.8407 13.2899 14.8726 13.3663C14.9046 13.4427 14.9515 13.512 15.0104 13.5702C15.0694 13.6283 15.1394 13.6742 15.2162 13.705C15.2931 13.7359 15.3753 13.7512 15.4581 13.7501L16.6064 13.7501C16.9097 13.7501 17.1625 13.9596 17.22 14.2579L17.3445 14.9089L18.6881 21.9654C18.9311 23.2385 20.0528 24.1667 21.3492 24.1667L29.1503 24.1667C30.4468 24.1667 31.569 23.2389 31.8115 21.9654L33.1551 14.9089C33.1723 14.8186 33.1694 14.7255 33.1465 14.6364C33.1237 14.5473 33.0814 14.4644 33.0228 14.3935C32.9642 14.3226 32.8907 14.2655 32.8075 14.2263C32.7243 14.1871 32.6334 14.1668 32.5415 14.1667L18.4749 14.1667L18.448 14.0243C18.2801 13.144 17.5027 12.5001 16.6064 12.5001L15.4581 12.5001ZM18.7133 15.4167L31.7862 15.4167L30.5834 21.7318C30.4518 22.4233 29.8547 22.9167 29.1503 22.9167L21.3492 22.9167C20.6451 22.9167 20.0484 22.4233 19.9161 21.7318L19.9161 21.731L18.7133 15.4167ZM22.3331 25.0001C22.0016 25.0001 21.6837 25.1318 21.4492 25.3662C21.2148 25.6006 21.0831 25.9185 21.0831 26.2501C21.0831 26.5816 21.2148 26.8995 21.4492 27.1339C21.6837 27.3684 22.0016 27.5001 22.3331 27.5001C22.6646 27.5001 22.9826 27.3684 23.217 27.1339C23.4514 26.8995 23.5831 26.5816 23.5831 26.2501C23.5831 25.9185 23.4514 25.6006 23.217 25.3662C22.9826 25.1318 22.6646 25.0001 22.3331 25.0001ZM28.1665 25.0001C27.8349 25.0001 27.517 25.1318 27.2826 25.3662C27.0481 25.6006 26.9165 25.9185 26.9165 26.2501C26.9165 26.5816 27.0481 26.8995 27.2826 27.1339C27.517 27.3684 27.8349 27.5001 28.1665 27.5001C28.498 27.5001 28.8159 27.3684 29.0503 27.1339C29.2848 26.8995 29.4165 26.5816 29.4165 26.2501C29.4165 25.9185 29.2848 25.6006 29.0503 25.3662C28.8159 25.1318 28.498 25.0001 28.1665 25.0001Z" fill="rgb(255,255,255)" fill-rule="nonzero" />
	</g>
</svg>
